<svg width="17" height="21" viewBox="0 0 17 21" fill="none" xmlns="http://www.w3.org/2000/svg">
<path fill-rule="evenodd" clip-rule="evenodd" d="M12.998 15.0473H3.99805V8.54704C3.99805 6.04695 5.99805 4.04688 8.49805 4.04688C10.998 4.04688 12.998 6.04695 12.998 8.54704V15.0473ZM15 14.0484V8.54816C15 5.47805 12.86 2.90796 10 2.22793V1.54791C10 0.719449 9.32843 0.0478516 8.5 0.0478516C7.67157 0.0478516 7 0.719449 7 1.54791V2.22793C4.13 2.90796 2 5.47805 2 8.54816V14.0484L0 16.0484V17.0485H17V16.0484L15 14.0484ZM8.5 20.046C9.60457 20.046 10.5 19.1505 10.5 18.0459H6.5C6.5 19.1505 7.39543 20.046 8.5 20.046Z" fill="#E7ECF3"/>
</svg>
