<svg width="41" height="39" viewBox="0 0 41 39" fill="none" xmlns="http://www.w3.org/2000/svg">
<path d="M22.6851 0.997417C21.3441 0.262188 19.7213 0.25916 18.3776 0.989382L2.72404 9.49599C1.27647 10.2826 0.375197 11.7982 0.375175 13.4457L0.375 26.4174C0.374977 28.138 1.35698 29.7076 2.9042 30.46L5.11788 31.5366C5.66163 30.2339 6.32004 28.9657 7.11385 27.7975C11.5261 21.3039 14.632 19.2051 17.5233 17.2832C17.7395 17.1396 17.7471 16.8252 17.5384 16.6709L10.8371 11.7171C10.7301 11.638 10.7374 11.4757 10.851 11.4065L12.8829 10.169C12.9863 10.106 13.1138 10.0969 13.2251 10.1445L17.625 12.0272C17.7386 12.0757 17.8687 12.0652 17.973 11.9991L19.5212 11.0176C19.6093 10.9617 19.7262 10.9886 19.7809 11.0775L20.702 12.5729C20.7459 12.6442 20.7371 12.7361 20.6804 12.7978L20.5198 12.9726C20.4317 13.0685 20.4659 13.2228 20.5862 13.2725L22.6369 14.1197C22.7016 14.1464 22.7755 14.1346 22.8303 14.0911C23.7278 13.3769 25.9833 12.1641 28.7432 12.296C28.9662 12.3066 29.1196 12.517 29.0415 12.7261C28.637 13.8091 27.351 15.7167 24.4764 17.0838C24.4172 17.1119 24.3757 17.1688 24.3685 17.2339L24.1373 19.3338C24.1251 19.4447 24.212 19.5416 24.3235 19.5416H24.5901C24.6592 19.5416 24.7227 19.5796 24.7553 19.6405L25.5533 21.1314C25.5999 21.2185 25.5709 21.3268 25.487 21.3789L23.8115 22.4189C23.7635 22.4486 23.7315 22.4985 23.7244 22.5545L23.109 27.4304C23.1013 27.4919 23.0635 27.5456 23.0082 27.5738L20.7429 28.7278C20.6235 28.7887 20.4808 28.7081 20.4711 28.5745L19.8551 20.0739C19.8458 19.9455 19.7138 19.8644 19.5975 19.9196C17.3676 20.9786 13.1967 24.3124 12.6163 30.1464C12.4279 32.0405 12.5422 33.7662 12.8807 35.3121L18.5675 38.0778C19.8087 38.6815 21.2584 38.6815 22.4996 38.0778L38.163 30.46C39.7102 29.7075 40.6922 28.138 40.6922 26.4175V13.5321C40.6922 11.8906 39.7974 10.3796 38.358 9.59042L22.6851 0.997417Z" fill="#316BFF"/>
</svg>
