<svg width="8" height="21" viewBox="0 0 8 21" fill="none" xmlns="http://www.w3.org/2000/svg">
<path d="M7.62117 8.83366L2.19101 0.57608C2.07195 0.39354 1.93031 0.248653 1.77424 0.149779C1.61818 0.0509049 1.45078 0 1.28171 0C1.11265 0 0.945252 0.0509049 0.789187 0.149779C0.633122 0.248653 0.491475 0.39354 0.372418 0.57608C0.133886 0.940976 0 1.43458 0 1.9491C0 2.46361 0.133886 2.95722 0.372418 3.32211L4.90609 10.2164L0.372418 17.1107C0.133886 17.4756 0 17.9692 0 18.4837C0 18.9982 0.133886 19.4918 0.372418 19.8567C0.492086 20.0372 0.634008 20.18 0.790045 20.277C0.946082 20.3739 1.11317 20.423 1.28171 20.4215C1.45026 20.423 1.61734 20.3739 1.77338 20.277C1.92942 20.18 2.07134 20.0372 2.19101 19.8567L7.62117 11.5992C7.74121 11.4181 7.83649 11.2027 7.9015 10.9654C7.96652 10.7281 8 10.4735 8 10.2164C8 9.95931 7.96652 9.70476 7.9015 9.46743C7.83649 9.23011 7.74121 9.01471 7.62117 8.83366Z" fill="#F4F5F6"/>
</svg>
