<svg width="15" height="12" viewBox="0 0 15 12" fill="none" xmlns="http://www.w3.org/2000/svg">
<path d="M7.71502 6.15529C8.07932 5.82927 8.37152 5.42604 8.57178 4.97296C8.77205 4.51988 8.87569 4.02756 8.87569 3.52941C8.87569 2.59335 8.51603 1.69563 7.87583 1.03374C7.23563 0.371848 6.36734 1.2629e-07 5.46196 1.2629e-07C4.55659 1.2629e-07 3.68829 0.371848 3.04809 1.03374C2.4079 1.69563 2.04824 2.59335 2.04824 3.52941C2.04823 4.02756 2.15188 4.51988 2.35214 4.97296C2.55241 5.42604 2.84461 5.82927 3.2089 6.15529C2.25315 6.60274 1.44228 7.32531 0.873218 8.23662C0.30416 9.14792 0.0010049 10.2094 0 11.2941C0 11.4813 0.0719319 11.6609 0.199971 11.7933C0.328011 11.9256 0.50167 12 0.682745 12C0.863821 12 1.03748 11.9256 1.16552 11.7933C1.29356 11.6609 1.36549 11.4813 1.36549 11.2941C1.36549 10.1708 1.79708 9.09359 2.56532 8.29931C3.33356 7.50504 4.37551 7.05882 5.46196 7.05882C6.54841 7.05882 7.59037 7.50504 8.35861 8.29931C9.12684 9.09359 9.55843 10.1708 9.55843 11.2941C9.55843 11.4813 9.63037 11.6609 9.75841 11.7933C9.88645 11.9256 10.0601 12 10.2412 12C10.4223 12 10.5959 11.9256 10.724 11.7933C10.852 11.6609 10.9239 11.4813 10.9239 11.2941C10.9229 10.2094 10.6198 9.14792 10.0507 8.23662C9.48165 7.32531 8.67077 6.60274 7.71502 6.15529ZM5.46196 5.64706C5.05686 5.64706 4.66085 5.52286 4.32402 5.29017C3.98719 5.05748 3.72467 4.72675 3.56964 4.3398C3.41461 3.95285 3.37405 3.52706 3.45308 3.11628C3.53211 2.7055 3.72719 2.32817 4.01364 2.03201C4.30009 1.73585 4.66505 1.53416 5.06237 1.45246C5.45969 1.37075 5.87152 1.41268 6.24579 1.57296C6.62005 1.73324 6.93994 2.00466 7.16501 2.35291C7.39007 2.70116 7.5102 3.11058 7.5102 3.52941C7.5102 4.09105 7.2944 4.62968 6.91028 5.02681C6.52617 5.42395 6.00519 5.64706 5.46196 5.64706ZM12.1119 5.87294C12.5488 5.36423 12.8343 4.7358 12.9338 4.0633C13.0333 3.39079 12.9428 2.70288 12.673 2.08235C12.4032 1.46183 11.9657 0.93515 11.4131 0.56571C10.8605 0.196271 10.2165 -0.000181835 9.55843 1.2629e-07C9.37736 1.2629e-07 9.2037 0.0743696 9.07566 0.206748C8.94762 0.339127 8.87569 0.518671 8.87569 0.705883C8.87569 0.893094 8.94762 1.07264 9.07566 1.20502C9.2037 1.3374 9.37736 1.41176 9.55843 1.41176C10.1017 1.41176 10.6226 1.63487 11.0068 2.03201C11.3909 2.42915 11.6067 2.96778 11.6067 3.52941C11.6057 3.90017 11.5106 4.26417 11.3309 4.585C11.1512 4.90584 10.8931 5.17227 10.5826 5.35765C10.4813 5.41802 10.3968 5.50423 10.337 5.60805C10.2772 5.71187 10.2442 5.82981 10.2412 5.95059C10.2383 6.07042 10.265 6.18903 10.3188 6.29524C10.3725 6.40145 10.4516 6.49176 10.5484 6.55765L10.8147 6.74118L10.9034 6.79059C11.7264 7.19415 12.4207 7.83246 12.9046 8.63034C13.3884 9.42822 13.6416 10.3524 13.6344 11.2941C13.6344 11.4813 13.7064 11.6609 13.8344 11.7933C13.9624 11.9256 14.1361 12 14.3172 12C14.4982 12 14.6719 11.9256 14.7999 11.7933C14.928 11.6609 14.9999 11.4813 14.9999 11.2941C15.0055 10.2109 14.7431 9.14418 14.2376 8.19534C13.7321 7.2465 13.0004 6.44704 12.1119 5.87294Z" fill="#B1B5C4"/>
</svg>
